<?xml version="1.0" encoding="UTF-8" standalone="no"?>
<svg
   xmlns:dc="http://purl.org/dc/elements/1.1/"
   xmlns:cc="http://creativecommons.org/ns#"
   xmlns:rdf="http://www.w3.org/1999/02/22-rdf-syntax-ns#"
   xmlns:svg="http://www.w3.org/2000/svg"
   xmlns="http://www.w3.org/2000/svg"
   xmlns:sodipodi="http://sodipodi.sourceforge.net/DTD/sodipodi-0.dtd"
   xmlns:inkscape="http://www.inkscape.org/namespaces/inkscape"
   width="200"
   height="200"
   viewBox="0 0 52.916668 52.916666"
   version="1.1"
   id="svg8"
   inkscape:version="1.0.2-2 (e86c870879, 2021-01-15)"
   sodipodi:docname="fat.svg">
  <defs
     id="defs2">
    <rect
       x="-247.02634"
       y="132.02301"
       width="85.195833"
       height="26.722916"
       id="rect1290" />
    <inkscape:path-effect
       effect="envelope"
       id="path-effect4658"
       is_visible="true"
       yy="true"
       xx="true"
       bendpath1="m -199.08406,108.42369 h 7.0057"
       bendpath2="m -192.07836,108.42369 v 6.75242"
       bendpath3="m -199.08406,115.17611 h 7.0057"
       bendpath4="m -199.08406,108.42369 v 6.75242" />
    <inkscape:path-effect
       effect="bend_path"
       id="path-effect4656"
       is_visible="true"
       bendpath="m -192.00142,114.60623 c 2.12577,-0.53066 4.48261,0.85111 7.0057,0"
       prop_scale="1"
       scale_y_rel="false"
       vertical="false"
       bendpath-nodetypes="cc" />
    <inkscape:path-effect
       effect="bounding_box"
       id="path-effect4654"
       is_visible="true"
       linkedpath=""
       visualbounds="false" />
  </defs>
  <sodipodi:namedview
     id="base"
     pagecolor="#ffffff"
     bordercolor="#666666"
     borderopacity="1.0"
     inkscape:pageopacity="0.0"
     inkscape:pageshadow="2"
     inkscape:zoom="3.02"
     inkscape:cx="107.40282"
     inkscape:cy="101.48847"
     inkscape:document-units="mm"
     inkscape:current-layer="layer1"
     showgrid="false"
     fit-margin-top="0"
     fit-margin-left="0"
     fit-margin-right="0"
     fit-margin-bottom="0"
     inkscape:window-width="1280"
     inkscape:window-height="961"
     inkscape:window-x="-8"
     inkscape:window-y="-8"
     inkscape:window-maximized="1"
     showguides="false"
     inkscape:object-nodes="true"
     units="px"
     inkscape:snap-page="true"
     inkscape:document-rotation="0" />
  <metadata
     id="metadata5">
    <rdf:RDF>
      <cc:Work
         rdf:about="">
        <dc:format>image/svg+xml</dc:format>
        <dc:type
           rdf:resource="http://purl.org/dc/dcmitype/StillImage" />
        <dc:title />
      </cc:Work>
    </rdf:RDF>
  </metadata>
  <g
     inkscape:label="Layer 1"
     inkscape:groupmode="layer"
     id="layer1"
     transform="translate(249.80447,-91.409467)">
    <rect
       y="91.40947"
       x="-249.80447"
       height="52.916668"
       width="52.916668"
       id="rect5238-5"
       style="fill:#222222;fill-opacity:1;fill-rule:nonzero;stroke:none;stroke-width:0.5;stroke-linecap:butt;stroke-linejoin:round;stroke-miterlimit:4;stroke-dasharray:none;stroke-dashoffset:0;stroke-opacity:0.909449;paint-order:normal"
       rx="3.96875"
       ry="3.96875" />
    <rect
       style="fill:#dca838;fill-opacity:1;fill-rule:nonzero;stroke:none;stroke-width:0.5;stroke-linecap:butt;stroke-linejoin:round;stroke-miterlimit:4;stroke-dasharray:none;stroke-dashoffset:0;stroke-opacity:0.909449;paint-order:normal"
       id="rect5240-3"
       width="47.625"
       height="47.625"
       x="-247.15863"
       y="94.055298"
       rx="2.6458333"
       ry="2.6458333" />
    <path
       inkscape:connector-curvature="0"
       id="path5244-6"
       d="m -248.34926,128.45114 v 8.33437 c 0,3.07816 2.47808,5.55625 5.55625,5.55625 h 38.89375 c 3.07816,0 5.55625,-2.47809 5.55625,-5.55625 v -8.33437 z"
       style="fill:#222222;fill-opacity:1;fill-rule:nonzero;stroke:none;stroke-width:0.5;stroke-linecap:butt;stroke-linejoin:round;stroke-miterlimit:4;stroke-dasharray:none;stroke-dashoffset:0;stroke-opacity:0.909449;paint-order:normal" />
    <g
       id="Default"
       visibility="visible"
       transform="matrix(0.0012923,0,0,0.0012923,-238.3492,96.214692)"
       style="stroke-width:204.737;fill:#222222;fill-opacity:1">
      <desc
         id="desc3699">Master slide</desc>
    </g>
    <g
       aria-label="LIPOSTOCRACY"
       transform="scale(0.89017303,1.1233771)"
       id="text8083"
       style="font-weight:bold;font-size:6.51257px;line-height:1.25;font-family:Montserrat;-inkscape-font-specification:'Montserrat Bold';fill:#ffffff;stroke-width:0.162815">
      <path
         d="m -277.37419,118.02421 h 1.05504 v 3.69914 h 2.28591 v 0.85966 h -3.34095 z"
         style="fill:#ffffff;stroke-width:0.162815"
         id="path46" />
      <path
         d="m -273.44061,118.02421 h 1.05504 v 4.5588 h -1.05504 z"
         style="fill:#ffffff;stroke-width:0.162815"
         id="path48" />
      <path
         d="m -269.33118,118.02421 q 0.60566,0 1.04852,0.20189 0.44937,0.20189 0.69033,0.5731 0.24097,0.37122 0.24097,0.8792 0,0.50147 -0.24097,0.8792 -0.24096,0.37122 -0.69033,0.5731 -0.44286,0.19538 -1.04852,0.19538 h -0.91828 v 1.25693 h -1.05503 v -4.5588 z m -0.0586,2.44221 q 0.47542,0 0.7229,-0.20189 0.24748,-0.2084 0.24748,-0.58613 0,-0.38424 -0.24748,-0.58613 -0.24748,-0.2084 -0.7229,-0.2084 h -0.85966 v 1.58255 z"
         style="fill:#ffffff;stroke-width:0.162815"
         id="path50" />
      <path
         d="m -264.32954,122.66116 q -0.70987,0 -1.28298,-0.30609 -0.56659,-0.30609 -0.89222,-0.84012 -0.31912,-0.54055 -0.31912,-1.21134 0,-0.6708 0.31912,-1.20483 0.32563,-0.54054 0.89222,-0.84663 0.57311,-0.30609 1.28298,-0.30609 0.70987,0 1.27646,0.30609 0.5666,0.30609 0.89222,0.84663 0.32563,0.53403 0.32563,1.20483 0,0.67079 -0.32563,1.21134 -0.32562,0.53403 -0.89222,0.84012 -0.56659,0.30609 -1.27646,0.30609 z m 0,-0.89874 q 0.40378,0 0.72941,-0.18235 0.32563,-0.18886 0.50798,-0.521 0.18886,-0.33214 0.18886,-0.75546 0,-0.42332 -0.18886,-0.75546 -0.18235,-0.33214 -0.50798,-0.51449 -0.32563,-0.18887 -0.72941,-0.18887 -0.40378,0 -0.72941,0.18887 -0.32563,0.18235 -0.51449,0.51449 -0.18235,0.33214 -0.18235,0.75546 0,0.42332 0.18235,0.75546 0.18886,0.33214 0.51449,0.521 0.32563,0.18235 0.72941,0.18235 z"
         style="fill:#ffffff;stroke-width:0.162815"
         id="path52" />
      <path
         d="m -259.5428,122.66116 q -0.54055,0 -1.04853,-0.14328 -0.50147,-0.14979 -0.80756,-0.38424 l 0.3582,-0.79453 q 0.29306,0.21491 0.69684,0.34516 0.40378,0.13025 0.80756,0.13025 0.44937,0 0.66428,-0.13025 0.21492,-0.13676 0.21492,-0.35819 0,-0.16281 -0.13026,-0.26701 -0.12373,-0.11072 -0.32562,-0.17584 -0.19538,-0.0651 -0.53403,-0.14328 -0.52101,-0.12374 -0.85315,-0.24748 -0.33214,-0.12374 -0.57311,-0.39726 -0.23445,-0.27353 -0.23445,-0.72941 0,-0.39727 0.21491,-0.71638 0.21492,-0.32563 0.64475,-0.5145 0.43634,-0.18886 1.06155,-0.18886 0.43634,0 0.85314,0.1042 0.41681,0.1042 0.72941,0.29958 l -0.32563,0.80104 q -0.63172,-0.35819 -1.26343,-0.35819 -0.44286,0 -0.65777,0.14328 -0.20841,0.14328 -0.20841,0.37773 0,0.23445 0.24097,0.35168 0.24748,0.11071 0.74894,0.22142 0.52101,0.12374 0.85315,0.24748 0.33214,0.12374 0.56659,0.39076 0.24097,0.26701 0.24097,0.72289 0,0.39076 -0.22143,0.71638 -0.21491,0.31912 -0.65125,0.50798 -0.43635,0.18887 -1.06155,0.18887 z"
         style="fill:#ffffff;stroke-width:0.162815"
         id="path54" />
      <path
         d="m -256.00649,118.88387 h -1.45881 v -0.85966 h 3.97266 v 0.85966 h -1.45881 v 3.69914 h -1.05504 z"
         style="fill:#ffffff;stroke-width:0.162815"
         id="path56" />
      <path
         d="m -250.78342,122.66116 q -0.70987,0 -1.28298,-0.30609 -0.56659,-0.30609 -0.89222,-0.84012 -0.31911,-0.54055 -0.31911,-1.21134 0,-0.6708 0.31911,-1.20483 0.32563,-0.54054 0.89222,-0.84663 0.57311,-0.30609 1.28298,-0.30609 0.70987,0 1.27646,0.30609 0.5666,0.30609 0.89223,0.84663 0.32562,0.53403 0.32562,1.20483 0,0.67079 -0.32562,1.21134 -0.32563,0.53403 -0.89223,0.84012 -0.56659,0.30609 -1.27646,0.30609 z m 0,-0.89874 q 0.40378,0 0.72941,-0.18235 0.32563,-0.18886 0.50798,-0.521 0.18886,-0.33214 0.18886,-0.75546 0,-0.42332 -0.18886,-0.75546 -0.18235,-0.33214 -0.50798,-0.51449 -0.32563,-0.18887 -0.72941,-0.18887 -0.40378,0 -0.72941,0.18887 -0.32563,0.18235 -0.51449,0.51449 -0.18235,0.33214 -0.18235,0.75546 0,0.42332 0.18235,0.75546 0.18886,0.33214 0.51449,0.521 0.32563,0.18235 0.72941,0.18235 z"
         style="fill:#ffffff;stroke-width:0.162815"
         id="path58" />
      <path
         d="m -245.31286,122.66116 q -0.69685,0 -1.26344,-0.29958 -0.56008,-0.30609 -0.88571,-0.84012 -0.31912,-0.54054 -0.31912,-1.21785 0,-0.67731 0.31912,-1.21134 0.32563,-0.54054 0.88571,-0.84012 0.56659,-0.30609 1.26995,-0.30609 0.59264,0 1.06806,0.2084 0.48193,0.2084 0.80756,0.59916 l -0.67731,0.6252 q -0.46239,-0.53403 -1.14621,-0.53403 -0.42332,0 -0.75546,0.18887 -0.33214,0.18235 -0.521,0.51449 -0.18235,0.33214 -0.18235,0.75546 0,0.42332 0.18235,0.75546 0.18886,0.33214 0.521,0.521 0.33214,0.18235 0.75546,0.18235 0.68382,0 1.14621,-0.54054 l 0.67731,0.62521 q -0.32563,0.39726 -0.80756,0.60567 -0.48193,0.2084 -1.07457,0.2084 z"
         style="fill:#ffffff;stroke-width:0.162815"
         id="path60" />
      <path
         d="m -239.81626,122.58301 -0.87919,-1.26995 h -0.0521 -0.91828 v 1.26995 h -1.05503 v -4.5588 h 1.97331 q 0.60567,0 1.04852,0.20189 0.44937,0.20189 0.69033,0.5731 0.24097,0.37122 0.24097,0.8792 0,0.50798 -0.24748,0.8792 -0.24097,0.3647 -0.69033,0.56008 l 1.02247,1.46533 z m -0.0195,-2.90461 q 0,-0.38424 -0.24748,-0.58613 -0.24748,-0.2084 -0.7229,-0.2084 h -0.85966 v 1.58907 h 0.85966 q 0.47542,0 0.7229,-0.20841 0.24748,-0.2084 0.24748,-0.58613 z"
         style="fill:#ffffff;stroke-width:0.162815"
         id="path62" />
      <path
         d="m -234.93184,121.60612 h -2.11658 l -0.40378,0.97689 h -1.08109 l 2.03192,-4.5588 h 1.04202 l 2.03843,4.5588 h -1.10714 z m -0.33214,-0.80104 -0.72289,-1.74537 -0.7229,1.74537 z"
         style="fill:#ffffff;stroke-width:0.162815"
         id="path64" />
      <path
         d="m -230.82892,122.66116 q -0.69685,0 -1.26344,-0.29958 -0.56008,-0.30609 -0.88571,-0.84012 -0.31912,-0.54054 -0.31912,-1.21785 0,-0.67731 0.31912,-1.21134 0.32563,-0.54054 0.88571,-0.84012 0.56659,-0.30609 1.26995,-0.30609 0.59264,0 1.06806,0.2084 0.48193,0.2084 0.80756,0.59916 l -0.67731,0.6252 q -0.46239,-0.53403 -1.14621,-0.53403 -0.42332,0 -0.75546,0.18887 -0.33214,0.18235 -0.521,0.51449 -0.18236,0.33214 -0.18236,0.75546 0,0.42332 0.18236,0.75546 0.18886,0.33214 0.521,0.521 0.33214,0.18235 0.75546,0.18235 0.68382,0 1.14621,-0.54054 l 0.67731,0.62521 q -0.32563,0.39726 -0.80756,0.60567 -0.48193,0.2084 -1.07457,0.2084 z"
         style="fill:#ffffff;stroke-width:0.162815"
         id="path66" />
      <path
         d="m -226.0943,120.96789 v 1.61512 h -1.05504 v -1.62814 l -1.7649,-2.93066 h 1.12016 l 1.21785,2.02541 1.21785,-2.02541 h 1.0355 z"
         style="fill:#ffffff;stroke-width:0.162815"
         id="path68" />
    </g>
    <path
       style="fill:none;stroke:#000000;stroke-width:0.284416px;stroke-linecap:butt;stroke-linejoin:miter;stroke-opacity:1"
       d="m -229.22378,94.651051 c 0.10122,8.848649 0.10122,8.848649 0.10122,8.848649 l -5.36555,2.45309 -2.02474,2.45309 v 2.80354 l 1.9235,3.32919 5.7705,1.48938 0.30371,9.72475 v 0 -0.17522 0"
       id="path8646" />
    <path
       style="fill:none;stroke:#000000;stroke-width:0.348336px;stroke-linecap:butt;stroke-linejoin:miter;stroke-opacity:1"
       d="m -218.5459,93.549912 c -0.13961,9.622528 -0.13961,9.622528 -0.13961,9.622528 l 7.40098,2.66763 2.79284,2.66763 v 3.04873 l -2.65319,3.62035 -7.95955,1.61964 -0.41893,10.57525 v 0 -0.19055 0"
       id="path8646-5" />
  </g>
</svg>
